<svg xmlns="http://www.w3.org/2000/svg" viewBox="0 0 64 64">
  <defs><radialGradient id="bg" cx="30%" cy="20%" r="95%"><stop offset="0" stop-color="#6B2943"/><stop offset="1" stop-color="#3D1426"/></radialGradient></defs>
  <rect width="64" height="64" rx="15" fill="url(#bg)"/>
  <g transform="translate(5.6 4.4) scale(.825)">
  <defs>
    <linearGradient id="g" x1="0" y1="0" x2="1" y2="1"><stop offset="0" stop-color="#F1D9A8"/><stop offset=".55" stop-color="#D2A866"/><stop offset="1" stop-color="#A97E3F"/></linearGradient>
    <linearGradient id="gd" x1="0" y1="0" x2="1" y2="1"><stop offset="0" stop-color="#C79A58"/><stop offset="1" stop-color="#8F6630"/></linearGradient>
  </defs>
  <path d="M29.2 33.4C26.8 40.6 22.4 47.6 16.8 53.6l6.6-.9 2.2 6.1c4.5-7.3 7.6-15.4 8.6-23.6Z" fill="url(#gd)"/>
  <path d="M34.8 33.4c2.4 7.2 6.8 14.2 12.4 20.2l-6.6-.9-2.2 6.1c-4.5-7.3-7.6-15.4-8.6-23.6Z" fill="url(#gd)"/>
  <path d="M31 29.6C25.2 20.4 16.6 14.9 11.3 17.1 6.6 19 7.8 26.6 13.6 30.4c4.9 3.2 11.4 3.3 17.4 1.7Z" fill="url(#g)"/>
  <path d="M33 29.6c5.8-9.2 14.4-14.7 19.7-12.5 4.7 1.9 3.5 9.5-2.3 13.3-4.9 3.2-11.4 3.3-17.4 1.7Z" fill="url(#g)"/>
  <path d="M29.6 29.9c-4.6-5.6-10.1-8.8-13.6-7.6-2.8 1-2.1 4.6 1.2 6.6 3 1.8 7.6 2 12.4 1Z" fill="#8F6630" opacity=".35"/>
  <path d="M34.4 29.9c4.6-5.6 10.1-8.8 13.6-7.6 2.8 1 2.1 4.6-1.2 6.6-3 1.8-7.6 2-12.4 1Z" fill="#8F6630" opacity=".35"/>
  <rect x="27.6" y="26.4" width="8.8" height="9.2" rx="3.4" fill="url(#g)" stroke="#8F6630" stroke-opacity=".45" stroke-width=".8"/>
</g>
</svg>
